<?xml version="1.0" encoding="UTF-8" standalone="no"?>
<svg
   viewBox="0 0 32 32"
   height="32"
   width="32"
   xml:space="preserve"
   style="fill-rule:evenodd;clip-rule:evenodd;stroke-linejoin:round;stroke-miterlimit:2"
   version="1.1"
   id="svg1"
   sodipodi:docname="vacation.svg"
   inkscape:version="1.4.4 (dcaf3e7, 2026-05-05)"
   xmlns:inkscape="http://www.inkscape.org/namespaces/inkscape"
   xmlns:sodipodi="http://sodipodi.sourceforge.net/DTD/sodipodi-0.dtd"
   xmlns="http://www.w3.org/2000/svg"
   xmlns:svg="http://www.w3.org/2000/svg"><defs
     id="defs1" /><sodipodi:namedview
     id="namedview1"
     pagecolor="#ffffff"
     bordercolor="#999999"
     borderopacity="1"
     inkscape:showpageshadow="2"
     inkscape:pageopacity="0"
     inkscape:pagecheckerboard="0"
     inkscape:deskcolor="#d1d1d1"
     showguides="true"
     inkscape:zoom="36.46875"
     inkscape:cx="15.98629"
     inkscape:cy="16"
     inkscape:window-width="2560"
     inkscape:window-height="1369"
     inkscape:window-x="-8"
     inkscape:window-y="-8"
     inkscape:window-maximized="1"
     inkscape:current-layer="svg1"><sodipodi:guide
       position="16,27.2"
       orientation="1,0"
       id="guide1"
       inkscape:locked="false" /></sodipodi:namedview><path
     d="M5 22c-.55 0-1.021-.196-1.412-.587A1.927 1.927 0 0 1 3 20V6c0-.55.196-1.021.588-1.413A1.926 1.926 0 0 1 5 4h1V2h2v2h8V2h2v2h1c.55 0 1.021.196 1.413.587.391.392.587.863.587 1.413v14a1.93 1.93 0 0 1-.587 1.413A1.93 1.93 0 0 1 19 22H5Zm0-2h14V10H5v10Z"
     style="fill:#000000;fill-rule:nonzero;stroke:none;stroke-opacity:1;fill-opacity:1"
     transform="matrix(1.4 0 0 1.4 -.8 -.8)"
     id="path1" /><text
     xml:space="preserve"
     style="font-size:17.032px;line-height:1.25;font-family:'Courier New';-inkscape-font-specification:'Courier New';text-align:center;letter-spacing:0px;word-spacing:0px;text-anchor:middle;stroke-width:1.59674;fill:#000000;fill-opacity:1"
     x="16"
     y="26.109102"
     id="text1"><tspan
       sodipodi:role="line"
       id="tspan1"
       x="16"
       y="26.109102"
       style="font-style:normal;font-variant:normal;font-weight:normal;font-stretch:normal;font-family:Arial;-inkscape-font-specification:Arial;stroke-width:1.59674;fill:#000000;fill-opacity:1">U</tspan></text></svg>
